<?xml version="1.0" standalone="no"?><!-- Generator: Gravit.io --><svg xmlns="http://www.w3.org/2000/svg" xmlns:xlink="http://www.w3.org/1999/xlink" style="isolation:isolate" id="svg" width="512" height="512"><rect width="512" height="512" style="fill:rgb(61,73,186)"/><path d="M 51 35 L 187 35 L 187 171 L 51 171 L 51 35 Z" style="stroke:none;fill:#FFFFFF;stroke-miterlimit:10;opacity:0.1;"/><path d="M 241 35 L 460 35 L 460 90 L 241 90 L 241 35 Z" style="stroke:none;fill:#FFFFFF;stroke-miterlimit:10;opacity:0.1;"/><path d="M 241 117 L 460 117 L 460 171 L 241 171 L 241 117 Z" style="stroke:none;fill:#FFFFFF;stroke-miterlimit:10;opacity:0.1;"/><path d="M 51 228 L 460 228 L 460 283 L 51 283 L 51 228 Z" style="stroke:none;fill:#FFFFFF;stroke-miterlimit:10;opacity:0.1;"/><path d="M 51 325 L 460 325 L 460 379 L 51 379 L 51 325 Z" style="stroke:none;fill:#FFFFFF;stroke-miterlimit:10;opacity:0.1;"/><path d="M 51 422 L 460 422 L 460 476 L 51 476 L 51 422 Z" style="stroke:none;fill:#FFFFFF;stroke-miterlimit:10;opacity:0.1;"/><g shape="[GCompoundPath]"><path d="M 211.95000000000002 275.5608203125 Q 186.45000000000002 297.4608203125 167.10000000000002 297.4608203125 Q 147.75000000000003 297.4608203125 144.75000000000003 278.26082031249996 Q 135.75000000000003 287.26082031249996 124.65000000000003 292.3608203125 Q 113.55000000000003 297.4608203125 105.15000000000003 297.4608203125 Q 90.75000000000003 297.4608203125 80.55000000000003 284.8608203125 Q 70.35000000000002 272.26082031249996 70.35000000000002 245.8608203125 Q 70.35000000000002 206.26082031250002 87.15000000000003 183.6108203125 Q 103.95000000000002 160.9608203125 125.10000000000002 160.9608203125 Q 146.25000000000003 160.9608203125 160.65000000000003 170.5608203125 Q 169.95000000000005 121.9608203125 169.95000000000005 94.06082031250003 L 168.45000000000005 81.4608203125 Q 190.95000000000002 73.66082031250002 212.55 73.66082031250002 Q 214.95000000000002 78.76082031250002 214.95000000000002 85.36082031250001 Q 214.95000000000002 107.26082031250002 201.75000000000003 174.3108203125 Q 188.55 241.3608203125 188.55 265.3608203125 Q 188.55 272.5608203125 191.85000000000002 272.5608203125 Q 193.65000000000003 272.5608203125 203.25000000000003 266.8608203125 L 206.25000000000003 265.0608203125 L 211.95000000000002 275.5608203125 Z M 139.65000000000003 178.66082031250002 Q 129.15000000000003 178.66082031250002 121.50000000000003 199.3608203125 Q 113.85000000000002 220.0608203125 113.85000000000002 240.3108203125 Q 113.85000000000002 260.5608203125 116.70000000000002 266.26082031249996 Q 119.55000000000003 271.9608203125 125.25000000000003 271.9608203125 Q 135.15000000000003 271.9608203125 144.75000000000003 263.8608203125 Q 145.65000000000003 251.8608203125 158.25000000000003 184.0608203125 Q 148.05 178.66082031250002 139.65000000000003 178.66082031250002 Z M 219.15000000000003 241.9608203125 Q 219.15000000000003 204.46082031250003 241.8 182.71082031250003 Q 264.45000000000005 160.9608203125 293.25 160.9608203125 Q 310.95000000000005 160.9608203125 322.35 169.66082031250002 Q 333.75 178.3608203125 333.75 192.91082031250002 Q 333.75 207.46082031250003 326.40000000000003 217.3608203125 Q 319.05 227.26082031250002 308.55 232.66082031250002 Q 287.25 243.16082031250002 269.55 245.8608203125 L 262.35 246.76082031250002 Q 264.45000000000005 274.9608203125 285.45000000000005 274.9608203125 Q 292.65000000000003 274.9608203125 300.75 271.3608203125 Q 308.85 267.76082031249996 313.35 264.16082031250005 L 317.85 260.5608203125 L 325.05 270.16082031250005 Q 322.65000000000003 273.4608203125 315.45000000000005 278.8608203125 Q 308.25 284.26082031249996 301.95000000000005 287.8608203125 Q 284.55 297.4608203125 263.85 297.4608203125 Q 243.15000000000003 297.4608203125 231.15000000000003 282.76082031249996 Q 219.15000000000003 268.0608203125 219.15000000000003 241.9608203125 Z M 262.05 232.0608203125 Q 277.35 229.3608203125 286.35 219.16082031250002 Q 295.35 208.96082031250003 295.35 192.76082031250002 Q 295.35 176.5608203125 285.75 176.5608203125 Q 274.35 176.5608203125 268.20000000000005 195.91082031250002 Q 262.05 215.26082031250002 262.05 232.0608203125 Z M 369.3 160.9608203125 Q 369.3 160.9608203125 375.825 160.9608203125 Q 382.35 160.9608203125 388.8 166.3608203125 Q 395.25 171.76082031250002 395.25 188.5608203125 Q 395.25 197.5608203125 389.85 225.3108203125 Q 384.45 253.0608203125 384.45 259.0608203125 Q 384.45 271.0608203125 389.25 271.0608203125 Q 400.65 271.0608203125 414.3 254.1108203125 Q 427.95 237.16082031250002 428.55 225.76082031250002 L 408.15 202.96082031250003 Q 409.35 190.0608203125 414.45 179.5608203125 Q 419.55 169.0608203125 424.05 164.8608203125 L 428.25 160.9608203125 Q 441.15 160.9608203125 447.75 167.8608203125 Q 454.35 174.76082031250002 454.35 184.0608203125 Q 454.35 207.76082031250002 442.65 234.16082031250002 Q 430.95 260.5608203125 411.45 279.01082031249996 Q 391.95 297.4608203125 371.85 297.4608203125 Q 359.25 297.4608203125 352.5 289.66082031250005 Q 345.75 281.8608203125 345.75 269.1108203125 Q 345.75 256.3608203125 347.7 234.76082031250002 Q 349.65000000000003 213.16082031250002 349.65000000000003 191.8608203125 Q 349.65000000000003 187.0608203125 346.2 180.46082031250003 Q 342.75 173.8608203125 339.15000000000003 169.96082031250003 L 340.05 166.3608203125 Q 356.25 160.9608203125 369.3 160.9608203125 Z" style="stroke:none;fill:#F5F5F5;stroke-miterlimit:10;fill-rule:evenodd;"/></g><g shape="[GCompoundPath]"><path d="M 95.51999999999998 382.24458984374996 L 92.1 382.24458984374996 Q 92.1 373.78458984375 97.22999999999999 349.84458984375 Q 102.35999999999999 325.90458984375 102.35999999999999 322.66458984375 Q 102.35999999999999 316.72458984375 97.32 310.06458984374996 L 95.69999999999999 307.90458984375 L 95.88 305.56458984374996 Q 105.6 302.86458984374997 127.01999999999998 302.86458984374997 Q 129.35999999999999 305.92458984374997 129.54 314.02458984375 Q 145.2 301.96458984375 156 301.96458984375 Q 162.48 301.96458984375 166.35 306.46458984375 Q 170.21999999999997 310.96458984375 170.21999999999997 317.71458984375 Q 170.21999999999997 324.46458984375 166.07999999999998 341.02458984374994 Q 161.94 357.58458984375 161.94 363.25458984374995 Q 161.94 368.92458984374997 163.38 368.92458984374997 Q 164.45999999999998 368.92458984374997 170.94 365.50458984374995 L 173.1 364.42458984374997 L 176.33999999999997 370.72458984375 Q 174.71999999999997 372.16458984375 172.01999999999998 374.32458984375 Q 169.32 376.48458984375 162.02999999999997 380.17458984374997 Q 154.74 383.86458984374997 148.98 383.86458984374997 Q 135.83999999999997 383.86458984374997 135.83999999999997 368.92458984374997 Q 135.83999999999997 362.62458984374996 139.89 345.70458984375 Q 143.94 328.78458984375 143.94 323.92458984374997 Q 143.94 319.06458984374996 140.88 319.06458984374996 Q 135.66 319.06458984374996 128.1 323.56458984374996 Q 127.55999999999999 326.62458984374996 124.5 339.76458984374995 Q 118.19999999999999 368.02458984374994 118.19999999999999 379.72458984375 Q 111.89999999999999 382.24458984374996 95.51999999999998 382.24458984374996 Z M 181.38 350.56458984374996 Q 181.38 328.06458984374996 194.97 315.01458984374995 Q 208.55999999999997 301.96458984375 225.84 301.96458984375 Q 236.45999999999998 301.96458984375 243.29999999999998 307.18458984374996 Q 250.14 312.40458984375 250.14 321.13458984374995 Q 250.14 329.86458984374997 245.73 335.80458984374997 Q 241.32 341.74458984374996 235.01999999999998 344.98458984375 Q 222.23999999999998 351.28458984375 211.61999999999998 352.90458984375 L 207.29999999999998 353.44458984375 Q 208.55999999999997 370.36458984374997 221.16 370.36458984374997 Q 225.48 370.36458984374997 230.34 368.20458984375 Q 235.2 366.04458984375 237.89999999999998 363.88458984374995 L 240.6 361.72458984375 L 244.92 367.48458984375 Q 243.48 369.46458984375 239.16 372.70458984375 Q 234.84 375.94458984375 231.05999999999997 378.10458984375 Q 220.61999999999998 383.86458984374997 208.2 383.86458984374997 Q 195.78 383.86458984374997 188.57999999999998 375.04458984375 Q 181.38 366.22458984375 181.38 350.56458984374996 Z M 207.11999999999998 344.62458984374996 Q 216.29999999999998 343.00458984374995 221.7 336.88458984374995 Q 227.1 330.76458984374995 227.1 321.04458984375 Q 227.1 311.32458984375 221.34 311.32458984375 Q 214.49999999999997 311.32458984375 210.80999999999997 322.93458984374996 Q 207.11999999999998 334.54458984375 207.11999999999998 344.62458984374996 Z M 257.88 366.94458984375 L 259.86 319.96458984375 Q 259.86 313.84458984375 253.37999999999997 307.36458984374997 L 253.73999999999998 305.20458984375 Q 254.99999999999997 304.84458984375 256.16999999999996 304.57458984375 Q 257.34 304.30458984374997 258.87 303.94458984375 Q 260.4 303.58458984375 262.38 303.22458984375 Q 264.36 302.86458984374997 266.52 302.50458984374995 Q 271.55999999999995 301.96458984375 275.96999999999997 301.96458984375 Q 280.38 301.96458984375 283.53 305.56458984374996 Q 286.67999999999995 309.16458984375 286.67999999999995 316.99458984374996 Q 286.67999999999995 324.82458984375 284.25 339.31458984374996 Q 281.81999999999994 353.80458984374997 281.81999999999994 360.91458984375 Q 281.81999999999994 368.02458984374994 285.24 368.02458984374994 Q 290.81999999999994 368.02458984374994 297.48 361.00458984374995 Q 297.65999999999997 358.12458984374996 299.81999999999994 342.64458984374994 Q 301.98 327.16458984375 301.98 320.14458984374994 Q 301.98 313.12458984374996 300.9 308.08458984375 Q 314.76 302.86458984374997 325.74 302.86458984374997 Q 328.08000000000004 304.48458984375 328.08000000000004 313.39458984374994 Q 328.08000000000004 322.30458984374997 325.02 338.05458984374997 Q 321.96000000000004 353.80458984374997 321.96000000000004 360.91458984375 Q 321.96000000000004 368.02458984374994 324.84000000000003 368.02458984374994 Q 331.67999999999995 368.02458984374994 339.78 357.85458984375 Q 347.88 347.68458984374996 348.41999999999996 340.84458984375 L 336.17999999999995 327.16458984375 Q 336.9 319.42458984374997 339.96000000000004 313.12458984374996 Q 343.02 306.82458984375 345.72 304.30458984374997 L 348.24 301.96458984375 Q 355.98 301.96458984375 359.93999999999994 306.10458984375 Q 363.9 310.24458984374996 363.9 315.82458984375 Q 363.9 330.04458984375 356.88 345.88458984374995 Q 349.86 361.72458984375 337.98 372.79458984375 Q 326.1 383.86458984374997 313.86 383.86458984374997 Q 307.74 383.86458984374997 303.51 380.35458984375 Q 299.28 376.84458984375 297.84 371.26458984374995 Q 285.24 383.86458984374997 273.36 383.86458984374997 Q 265.43999999999994 383.86458984374997 261.65999999999997 378.91458984375 Q 257.88 373.96458984375 257.88 366.94458984375 Z M 421.86 358.12458984374996 Q 421.86 369.46458984375 411.87 376.66458984375 Q 401.88 383.86458984374997 389.1 383.86458984374997 Q 376.32000000000005 383.86458984374997 368.85 378.46458984375 Q 361.38 373.06458984374996 361.38 368.92458984374997 Q 361.38 366.40458984374993 367.67999999999995 360.73458984375 Q 373.98 355.06458984374996 378.29999999999995 353.80458984374997 Q 387.29999999999995 360.46458984375 393.06000000000006 374.86458984374997 Q 399.72 374.32458984375 399.72 368.56458984375 Q 399.72 360.28458984375 385.14 345.07458984375 Q 370.56000000000006 329.86458984374997 370.56000000000006 320.86458984374997 Q 370.56000000000006 311.86458984374997 378.65999999999997 306.91458984375 Q 386.76 301.96458984375 398.19000000000005 301.96458984375 Q 409.62 301.96458984375 415.38 306.01458984374995 Q 421.14 310.06458984374996 421.14 316.99458984374996 Q 421.14 323.92458984374997 410.15999999999997 336.16458984375 Q 411.41999999999996 337.42458984374997 413.4 339.49458984374996 Q 415.38 341.56458984374996 418.62 347.32458984375 Q 421.86 353.08458984375 421.86 358.12458984374996 Z M 404.58000000000004 329.86458984374997 Q 412.14 323.38458984374995 412.14 317.08458984375 Q 412.14 310.78458984375 403.5 310.78458984375 Q 399.36 310.78458984375 396.65999999999997 312.49458984374996 Q 393.96000000000004 314.20458984375 393.96000000000004 316.36458984374997 Q 393.96000000000004 320.32458984375 401.88 327.52458984374994 L 404.58000000000004 329.86458984374997 Z" style="stroke:none;fill:#F5F5F5;stroke-miterlimit:10;fill-rule:evenodd;"/></g></svg>