<?xml version="1.0" standalone="no"?><!-- Generator: Gravit.io --><svg xmlns="http://www.w3.org/2000/svg" xmlns:xlink="http://www.w3.org/1999/xlink" style="isolation:isolate" id="svg" width="313.5" height="74.8" viewBox="0 0 313.5 74.8"><g shape="[GCompoundPath]"><path d="M 47.10000000000001 67.4 Q 38.60000000000001 74.70000000000002 32.150000000000006 74.70000000000002 Q 25.7 74.70000000000002 24.7 68.30000000000001 Q 21.7 71.30000000000001 18 73 Q 14.3 74.70000000000002 11.5 74.70000000000002 Q 6.7 74.70000000000002 3.3000000000000007 70.5 Q -0.09999999999999964 66.30000000000001 -0.09999999999999964 57.50000000000001 Q -0.09999999999999964 44.300000000000004 5.500000000000001 36.75000000000001 Q 11.100000000000001 29.200000000000003 18.150000000000002 29.200000000000003 Q 25.2 29.200000000000003 30.000000000000004 32.400000000000006 Q 33.1 16.200000000000003 33.1 6.899999999999999 L 32.6 2.70000000000001 Q 40.10000000000001 0.10000000000000142 47.300000000000004 0.10000000000000142 Q 48.10000000000001 1.8000000000000043 48.10000000000001 4.000000000000007 Q 48.10000000000001 11.300000000000004 43.7 33.650000000000006 Q 39.300000000000004 56.00000000000001 39.300000000000004 64 Q 39.300000000000004 66.4 40.400000000000006 66.4 Q 41.00000000000001 66.4 44.2 64.5 L 45.2 63.90000000000001 L 47.10000000000001 67.4 Z M 23 35.1 Q 19.5 35.1 16.95 42.00000000000001 Q 14.399999999999999 48.90000000000001 14.399999999999999 55.65000000000001 Q 14.399999999999999 62.40000000000001 15.350000000000001 64.30000000000001 Q 16.3 66.20000000000002 18.2 66.20000000000002 Q 21.5 66.20000000000002 24.7 63.50000000000001 Q 25 59.50000000000001 29.2 36.900000000000006 Q 25.8 35.1 23 35.1 Z M 49.50000000000001 56.20000000000001 Q 49.50000000000001 43.70000000000001 57.050000000000004 36.45 Q 64.60000000000001 29.200000000000003 74.2 29.200000000000003 Q 80.10000000000001 29.200000000000003 83.9 32.1 Q 87.7 35.00000000000001 87.7 39.85 Q 87.7 44.70000000000001 85.25000000000001 48.00000000000001 Q 82.8 51.300000000000004 79.3 53.1 Q 72.2 56.6 66.30000000000001 57.50000000000001 L 63.900000000000006 57.800000000000004 Q 64.60000000000001 67.20000000000002 71.60000000000001 67.20000000000002 Q 74.00000000000001 67.20000000000002 76.7 66 Q 79.4 64.80000000000001 80.9 63.6 L 82.4 62.40000000000001 L 84.8 65.6 Q 84.00000000000001 66.70000000000002 81.60000000000001 68.5 Q 79.2 70.30000000000001 77.10000000000001 71.5 Q 71.30000000000001 74.70000000000002 64.4 74.70000000000002 Q 57.50000000000001 74.70000000000002 53.50000000000001 69.80000000000001 Q 49.50000000000001 64.9 49.50000000000001 56.20000000000001 Z M 63.80000000000001 52.90000000000001 Q 68.9 52.00000000000001 71.9 48.6 Q 74.9 45.20000000000001 74.9 39.800000000000004 Q 74.9 34.400000000000006 71.7 34.400000000000006 Q 67.9 34.400000000000006 65.85000000000001 40.85 Q 63.80000000000001 47.300000000000004 63.80000000000001 52.90000000000001 Z M 99.55000000000001 29.200000000000003 Q 99.55000000000001 29.200000000000003 101.72500000000001 29.200000000000003 Q 103.90000000000002 29.200000000000003 106.05000000000001 31.000000000000007 Q 108.20000000000002 32.800000000000004 108.20000000000002 38.40000000000001 Q 108.20000000000002 41.40000000000001 106.40000000000002 50.65000000000001 Q 104.60000000000001 59.90000000000001 104.60000000000001 61.90000000000001 Q 104.60000000000001 65.9 106.20000000000002 65.9 Q 110.00000000000001 65.9 114.55000000000001 60.25000000000001 Q 119.10000000000001 54.6 119.30000000000001 50.800000000000004 L 112.50000000000001 43.20000000000001 Q 112.90000000000002 38.90000000000001 114.60000000000001 35.400000000000006 Q 116.30000000000001 31.900000000000006 117.80000000000001 30.500000000000007 L 119.2 29.200000000000003 Q 123.50000000000001 29.200000000000003 125.7 31.500000000000007 Q 127.90000000000002 33.800000000000004 127.90000000000002 36.900000000000006 Q 127.90000000000002 44.800000000000004 124.00000000000001 53.6 Q 120.10000000000001 62.40000000000001 113.60000000000001 68.55000000000001 Q 107.10000000000001 74.70000000000002 100.40000000000002 74.70000000000002 Q 96.20000000000002 74.70000000000002 93.95000000000002 72.1 Q 91.70000000000002 69.5 91.70000000000002 65.25 Q 91.70000000000002 61.00000000000001 92.35000000000001 53.800000000000004 Q 93.00000000000001 46.6 93.00000000000001 39.50000000000001 Q 93.00000000000001 37.90000000000001 91.85000000000001 35.7 Q 90.70000000000002 33.50000000000001 89.50000000000001 32.2 L 89.80000000000001 31.000000000000007 Q 95.20000000000002 29.200000000000003 99.55000000000001 29.200000000000003 Z M 131.89999999999998 73.80000000000001 L 130 73.80000000000001 Q 130 69.1 132.85 55.800000000000004 Q 135.7 42.50000000000001 135.7 40.699999999999996 Q 135.7 37.40000000000001 132.89999999999998 33.7 L 132 32.50000000000001 L 132.1 31.200000000000003 Q 137.5 29.700000000000003 149.39999999999998 29.700000000000003 Q 150.7 31.400000000000006 150.79999999999998 35.900000000000006 Q 159.5 29.200000000000003 165.5 29.200000000000003 Q 169.1 29.200000000000003 171.25 31.700000000000003 Q 173.39999999999998 34.2 173.39999999999998 37.949999999999996 Q 173.39999999999998 41.70000000000001 171.1 50.90000000000001 Q 168.79999999999998 60.1 168.79999999999998 63.25000000000001 Q 168.79999999999998 66.4 169.6 66.4 Q 170.2 66.4 173.79999999999998 64.5 L 175 63.90000000000001 L 176.79999999999998 67.4 Q 175.89999999999998 68.20000000000002 174.39999999999998 69.4 Q 172.89999999999998 70.6 168.85 72.65 Q 164.79999999999998 74.70000000000002 161.6 74.70000000000002 Q 154.29999999999998 74.70000000000002 154.29999999999998 66.4 Q 154.29999999999998 62.90000000000001 156.54999999999998 53.50000000000001 Q 158.79999999999998 44.1 158.79999999999998 41.40000000000001 Q 158.79999999999998 38.699999999999996 157.1 38.699999999999996 Q 154.2 38.699999999999996 150 41.199999999999996 Q 149.7 42.90000000000001 148 50.20000000000001 Q 144.5 65.9 144.5 72.4 Q 141 73.80000000000001 131.89999999999998 73.80000000000001 Z M 179.6 56.20000000000001 Q 179.6 43.70000000000001 187.15 36.45 Q 194.7 29.200000000000003 204.3 29.200000000000003 Q 210.2 29.200000000000003 214 32.1 Q 217.8 35.00000000000001 217.8 39.85 Q 217.8 44.70000000000001 215.35 48.00000000000001 Q 212.9 51.300000000000004 209.4 53.1 Q 202.3 56.6 196.4 57.50000000000001 L 194 57.800000000000004 Q 194.7 67.20000000000002 201.7 67.20000000000002 Q 204.1 67.20000000000002 206.8 66 Q 209.5 64.80000000000001 211 63.6 L 212.5 62.40000000000001 L 214.9 65.6 Q 214.1 66.70000000000002 211.7 68.5 Q 209.3 70.30000000000001 207.2 71.5 Q 201.4 74.70000000000002 194.5 74.70000000000002 Q 187.6 74.70000000000002 183.6 69.80000000000001 Q 179.6 64.9 179.6 56.20000000000001 Z M 193.9 52.90000000000001 Q 199 52.00000000000001 202 48.6 Q 205 45.20000000000001 205 39.800000000000004 Q 205 34.400000000000006 201.8 34.400000000000006 Q 198 34.400000000000006 195.95 40.85 Q 193.9 47.300000000000004 193.9 52.90000000000001 Z M 222.1 65.30000000000001 L 223.20000000000002 39.199999999999996 Q 223.20000000000002 35.800000000000004 219.6 32.2 L 219.8 31.000000000000007 Q 220.5 30.800000000000004 221.15 30.650000000000006 Q 221.8 30.500000000000007 222.65 30.300000000000004 Q 223.5 30.1 224.6 29.900000000000006 Q 225.70000000000002 29.700000000000003 226.9 29.500000000000007 Q 229.70000000000002 29.200000000000003 232.15 29.200000000000003 Q 234.6 29.200000000000003 236.35000000000002 31.200000000000003 Q 238.10000000000002 33.2 238.10000000000002 37.550000000000004 Q 238.10000000000002 41.90000000000001 236.75 49.95000000000001 Q 235.4 58.00000000000001 235.4 61.95000000000001 Q 235.4 65.9 237.3 65.9 Q 240.4 65.9 244.10000000000002 62.00000000000001 Q 244.20000000000002 60.40000000000001 245.4 51.800000000000004 Q 246.60000000000002 43.20000000000001 246.60000000000002 39.300000000000004 Q 246.60000000000002 35.400000000000006 246 32.6 Q 253.7 29.700000000000003 259.8 29.700000000000003 Q 261.1 30.6 261.1 35.550000000000004 Q 261.1 40.50000000000001 259.40000000000003 49.25000000000001 Q 257.7 58.00000000000001 257.7 61.95000000000001 Q 257.7 65.9 259.3 65.9 Q 263.1 65.9 267.6 60.25000000000001 Q 272.1 54.6 272.40000000000003 50.800000000000004 L 265.6 43.20000000000001 Q 266 38.90000000000001 267.7 35.400000000000006 Q 269.40000000000003 31.900000000000006 270.90000000000003 30.500000000000007 L 272.3 29.200000000000003 Q 276.6 29.200000000000003 278.8 31.500000000000007 Q 281 33.800000000000004 281 36.900000000000006 Q 281 44.800000000000004 277.1 53.6 Q 273.2 62.40000000000001 266.6 68.55000000000001 Q 260 74.70000000000002 253.2 74.70000000000002 Q 249.8 74.70000000000002 247.45000000000002 72.75 Q 245.10000000000002 70.80000000000001 244.3 67.70000000000002 Q 237.3 74.70000000000002 230.70000000000002 74.70000000000002 Q 226.3 74.70000000000002 224.20000000000002 71.95000000000002 Q 222.1 69.20000000000002 222.1 65.30000000000001 Z M 313.2 60.40000000000001 Q 313.2 66.70000000000002 307.65000000000003 70.70000000000002 Q 302.1 74.70000000000002 295 74.70000000000002 Q 287.90000000000003 74.70000000000002 283.75 71.70000000000002 Q 279.6 68.70000000000002 279.6 66.4 Q 279.6 65 283.1 61.85 Q 286.6 58.70000000000001 289 58.00000000000001 Q 294 61.70000000000001 297.2 69.70000000000002 Q 300.90000000000003 69.4 300.90000000000003 66.20000000000002 Q 300.90000000000003 61.6 292.8 53.15000000000001 Q 284.7 44.70000000000001 284.7 39.699999999999996 Q 284.7 34.7 289.2 31.950000000000003 Q 293.7 29.200000000000003 300.05 29.200000000000003 Q 306.40000000000003 29.200000000000003 309.6 31.450000000000003 Q 312.8 33.7 312.8 37.550000000000004 Q 312.8 41.40000000000001 306.7 48.20000000000001 Q 307.40000000000003 48.90000000000001 308.5 50.050000000000004 Q 309.6 51.20000000000001 311.40000000000003 54.40000000000001 Q 313.2 57.6 313.2 60.40000000000001 Z M 303.6 44.70000000000001 Q 307.8 41.1 307.8 37.6 Q 307.8 34.1 303 34.1 Q 300.7 34.1 299.2 35.050000000000004 Q 297.7 36.00000000000001 297.7 37.199999999999996 Q 297.7 39.40000000000001 302.1 43.40000000000001 L 303.6 44.70000000000001 Z" style="stroke:none;fill:#3D49BA;stroke-miterlimit:10;fill-rule:evenodd;"/></g></svg>