<?xml version="1.0" standalone="no"?>
<!DOCTYPE svg PUBLIC "-//W3C//DTD SVG 20010904//EN"
 "http://www.w3.org/TR/2001/REC-SVG-20010904/DTD/svg10.dtd">
<svg version="1.0" xmlns="http://www.w3.org/2000/svg"
 width="512.000000pt" height="512.000000pt" viewBox="0 0 512.000000 512.000000"
 preserveAspectRatio="xMidYMid meet">
<metadata>
Created by potrace 1.11, written by Peter Selinger 2001-2013
</metadata>
<g transform="translate(0.000000,512.000000) scale(0.100000,-0.100000)"
fill="#000000" stroke="none">
<path d="M0 2560 l0 -2560 2560 0 2560 0 0 2560 0 2560 -2560 0 -2560 0 0
-2560z m2141 1783 c29 -89 -8 -360 -155 -1133 -82 -433 -116 -761 -83 -805 15
-20 16 -20 84 15 37 19 71 36 75 38 11 5 50 -78 44 -93 -7 -19 -138 -110 -210
-147 -85 -43 -141 -58 -220 -58 -114 0 -175 40 -207 135 -7 22 -14 41 -15 43
-1 2 -35 -22 -76 -52 -153 -117 -325 -157 -440 -102 -31 15 -76 48 -101 75
-93 100 -121 195 -121 421 1 171 17 282 61 403 79 222 254 393 425 416 112 15
283 -17 374 -71 18 -10 35 -15 37 -11 7 11 52 286 73 438 9 66 17 194 17 284
l2 164 25 9 c74 28 268 64 362 67 34 1 37 -2 49 -36z m922 -854 c75 -14 151
-55 197 -105 60 -66 74 -104 73 -204 0 -119 -26 -181 -111 -272 -55 -58 -83
-78 -166 -118 -113 -55 -223 -93 -318 -110 -123 -22 -111 -14 -105 -77 8 -72
52 -159 100 -198 37 -28 43 -30 130 -30 83 0 99 3 161 33 38 17 89 47 115 66
l46 34 32 -43 32 -43 -42 -39 c-93 -86 -215 -156 -337 -195 -64 -19 -96 -23
-215 -23 -134 0 -143 1 -198 29 -113 55 -194 162 -234 308 -26 93 -23 336 5
439 44 162 121 287 239 384 184 152 380 206 596 164z m794 -14 c65 -39 86 -87
91 -210 3 -102 1 -117 -73 -530 -35 -194 -32 -300 7 -326 20 -13 92 10 143 46
112 77 252 279 262 379 4 40 1 44 -97 153 -98 109 -101 114 -95 150 21 122 79
249 148 321 33 34 48 42 77 42 56 0 108 -19 147 -53 54 -47 73 -97 73 -194 1
-275 -154 -629 -377 -864 -160 -168 -297 -235 -459 -227 -73 4 -90 8 -126 34
-24 16 -56 52 -73 79 -28 45 -30 56 -33 164 -2 64 3 211 12 326 9 116 16 272
17 347 1 128 -1 141 -26 195 -14 31 -37 72 -51 91 -34 43 -23 55 69 78 163 40
294 40 364 -1z m-2219 -1402 c13 -8 32 -28 43 -46 28 -44 21 -147 -25 -347
-39 -167 -45 -237 -22 -246 8 -3 33 4 56 16 23 12 43 20 45 18 1 -2 8 -14 15
-26 10 -21 9 -27 -11 -48 -13 -14 -59 -43 -102 -64 -65 -33 -90 -40 -138 -40
-50 0 -63 4 -91 29 -28 25 -32 35 -36 92 -2 41 4 100 18 164 57 271 64 316 54
333 -16 25 -56 26 -112 2 l-49 -21 -31 -142 c-35 -164 -58 -288 -67 -369 -7
-66 -4 -65 -155 -74 l-103 -7 7 59 c3 32 27 159 51 282 25 122 45 239 45 260
0 35 -16 75 -50 129 -8 12 -11 25 -8 28 12 12 82 23 190 30 120 8 113 12 135
-73 l8 -32 35 23 c128 87 232 112 298 70z m758 -8 c65 -29 96 -72 102 -139 7
-85 -12 -134 -77 -196 -63 -62 -167 -110 -283 -131 l-65 -12 9 -46 c15 -86 78
-137 153 -126 38 6 121 41 158 67 15 11 21 9 37 -12 24 -31 18 -38 -77 -100
-93 -62 -175 -84 -282 -78 -96 6 -145 33 -192 106 -41 65 -52 112 -52 222 0
146 36 246 121 333 129 132 304 176 448 112z m430 4 c51 -47 53 -112 13 -369
-31 -204 -25 -260 30 -260 36 0 109 53 115 82 19 98 40 304 41 401 l0 118 50
15 c28 8 79 19 115 25 57 9 66 8 77 -7 20 -28 16 -148 -12 -307 -46 -266 -44
-327 9 -327 68 0 226 181 226 258 0 11 -27 49 -61 85 l-60 66 15 61 c19 75 46
127 83 162 25 24 32 26 66 18 80 -18 112 -73 103 -176 -14 -173 -106 -366
-235 -495 -99 -98 -151 -124 -253 -124 -71 0 -79 2 -109 30 -17 17 -37 43 -44
58 l-12 28 -44 -37 c-65 -55 -134 -84 -199 -84 -74 0 -112 24 -136 85 -16 43
-17 66 -7 303 12 276 10 297 -39 349 -11 12 -17 26 -14 31 3 6 39 16 79 22 39
6 79 13 87 15 36 8 93 -5 116 -26z m1299 1 c54 -23 76 -51 82 -103 6 -50 -13
-94 -70 -166 l-35 -45 38 -44 c39 -44 80 -134 80 -175 0 -81 -64 -168 -159
-214 -51 -26 -66 -28 -171 -28 -110 0 -117 1 -170 31 -49 28 -100 82 -100 106
0 17 88 103 128 126 l39 22 45 -48 c24 -26 57 -73 72 -104 30 -61 51 -72 80
-42 27 27 24 83 -9 139 -13 22 -63 86 -112 143 -143 163 -174 244 -124 325 56
91 262 132 386 77z"/>
<path d="M1320 3304 c-109 -99 -187 -386 -178 -653 5 -147 25 -218 66 -240 32
-17 102 -13 150 9 73 33 102 58 102 89 0 30 55 365 101 610 17 90 27 167 22
171 -20 19 -128 50 -173 50 -43 0 -55 -5 -90 -36z"/>
<path d="M2793 3340 c-44 -26 -79 -85 -113 -190 -27 -82 -60 -262 -60 -325 0
-26 2 -27 37 -22 112 19 233 119 275 227 42 109 33 281 -16 315 -29 21 -85 19
-123 -5z"/>
<path d="M2172 1994 c-43 -30 -82 -138 -97 -266 -8 -67 -5 -69 65 -37 86 39
129 103 137 204 4 51 2 64 -17 88 -24 30 -55 35 -88 11z"/>
<path d="M4004 2009 c-17 -5 -39 -18 -49 -29 -24 -26 -9 -62 50 -120 l45 -44
24 23 c31 29 56 81 56 115 0 43 -66 72 -126 55z"/>
</g>
</svg>
